<svg xmlns="http://www.w3.org/2000/svg" xmlns:xlink="http://www.w3.org/1999/xlink" width="1920" zoomAndPan="magnify" viewBox="0 0 1440 809.999993" height="1080" preserveAspectRatio="xMidYMid meet" version="1.0"><defs><filter x="0%" y="0%" width="100%" height="100%" id="id1"><feColorMatrix values="0 0 0 0 1 0 0 0 0 1 0 0 0 0 1 0 0 0 1 0" color-interpolation-filters="sRGB"/></filter><mask id="id2"><g filter="url(#id1)"><rect x="-144" width="1728" fill="#000000" y="-80.999999" height="971.999992" fill-opacity="0.2"/></g></mask><clipPath id="id3"><path d="M 0 0 L 1440 0 L 1440 285.359375 L 0 285.359375 Z M 0 0 " clip-rule="nonzero"/></clipPath><clipPath id="id4"><rect x="0" width="1440" y="0" height="286"/></clipPath></defs><rect x="-144" width="1728" fill="#ffffff" y="-80.999999" height="971.999992" fill-opacity="1"/><rect x="-144" width="1728" fill="#ffffff" y="-80.999999" height="971.999992" fill-opacity="1"/><rect x="-144" width="1728" fill="#1c0a00" y="-80.999999" height="971.999992" fill-opacity="1"/><g mask="url(#id2)"><g transform="matrix(1, 0, 0, 1, 0, 0.000000000000039746)"><g clip-path="url(#id4)"><g clip-path="url(#id3)"><path fill="#000000" d="M 26.746094 253.351562 C 26.746094 251.300781 27.039062 249.835938 27.625 250.128906 C 28.210938 251.300781 27.625 252.472656 26.746094 253.351562 C 27.332031 263.023438 38.472656 290.277344 68.085938 264.78125 C 83.625 272.402344 73.65625 297.015625 107.667969 278.554688 C 134.640625 274.453125 146.664062 276.210938 151.355469 279.433594 C 151.648438 278.847656 151.941406 278.554688 152.234375 277.96875 C 147.835938 253.9375 178.621094 226.6875 189.761719 251.300781 C 193.574219 249.835938 228.464844 226.980469 233.449219 241.046875 C 255.730469 235.476562 239.898438 252.765625 275.960938 234.304688 C 321.40625 238.113281 300.882812 206.171875 318.179688 215.84375 C 351.015625 196.210938 337.238281 192.984375 360.984375 189.46875 C 408.191406 157.820312 382.390625 166.613281 400.859375 172.765625 C 388.253906 188.003906 416.984375 204.121094 447.769531 160.457031 C 470.054688 113.570312 492.628906 182.730469 503.769531 145.21875 C 508.753906 133.792969 554.199219 154.011719 558.304688 153.71875 C 558.304688 153.71875 558.304688 153.71875 558.597656 153.71875 C 558.597656 153.71875 558.890625 153.71875 558.890625 153.71875 C 558.890625 153.71875 558.890625 153.71875 558.597656 153.71875 C 560.648438 153.71875 571.792969 154.890625 592.902344 185.074219 C 601.402344 231.375 610.492188 153.132812 631.601562 176.28125 C 651.246094 166.90625 639.226562 187.125 662.679688 191.8125 C 687.601562 168.957031 665.613281 211.742188 688.1875 209.691406 C 696.398438 232.253906 741.257812 225.515625 748 224.046875 C 750.933594 231.082031 776.144531 222.289062 810.15625 225.21875 C 810.15625 240.457031 852.960938 208.515625 873.78125 233.71875 C 876.125 278.554688 909.253906 235.476562 913.652344 253.351562 C 911.601562 249.542969 965.839844 248.371094 954.40625 266.246094 C 983.433594 297.015625 954.699219 284.414062 984.019531 254.816406 C 992.816406 259.800781 1009.234375 244.269531 1009.527344 237.234375 C 1041.777344 197.382812 1030.636719 268.882812 1041.191406 232.253906 C 1052.625 243.390625 1084.585938 199.726562 1071.097656 225.515625 C 1079.894531 224.632812 1071.390625 188.003906 1093.671875 200.3125 C 1105.402344 209.394531 1090.449219 159.285156 1116.542969 175.988281 C 1117.421875 139.066406 1145.570312 151.960938 1174.886719 168.371094 C 1198.34375 159.871094 1207.726562 190.347656 1234.699219 188.882812 C 1248.773438 197.089844 1284.835938 195.039062 1288.351562 221.996094 C 1338.488281 201.484375 1330.867188 228.445312 1349.042969 241.925781 C 1354.320312 221.117188 1402.40625 250.128906 1394.78125 235.769531 C 1409.148438 203.828125 1412.082031 221.703125 1435.828125 220.53125 C 1437.292969 220.53125 1438.761719 220.824219 1439.933594 220.824219 L 1439.933594 -239.835938 L 0.0664062 -239.835938 L 0.0664062 255.109375 C 11.792969 256.574219 23.230469 256.28125 26.746094 253.351562 Z M 26.746094 253.351562 " fill-opacity="1" fill-rule="nonzero"/></g></g></g></g><path fill="#ffffff" d="M 26.746094 221.703125 C 26.746094 219.652344 27.039062 218.1875 27.625 218.480469 C 28.210938 219.652344 27.625 220.824219 26.746094 221.703125 C 27.332031 231.375 38.472656 258.628906 68.085938 233.132812 C 83.625 240.75 73.65625 265.074219 107.667969 246.90625 C 134.640625 242.804688 146.664062 244.5625 151.355469 247.785156 C 151.648438 247.199219 151.941406 246.90625 152.234375 246.320312 C 147.835938 222.289062 178.621094 195.039062 189.761719 219.652344 C 193.574219 218.1875 228.464844 195.332031 233.449219 209.398438 C 255.730469 203.828125 239.898438 221.117188 275.960938 202.65625 C 321.40625 206.464844 300.882812 174.523438 318.179688 184.195312 C 351.015625 164.5625 337.238281 161.335938 360.984375 157.820312 C 408.191406 126.171875 382.390625 134.964844 400.859375 141.117188 C 388.253906 156.355469 416.984375 172.472656 447.769531 128.808594 C 470.054688 81.921875 492.628906 151.082031 503.769531 113.570312 C 508.753906 102.144531 554.199219 122.363281 558.304688 122.070312 C 558.304688 122.070312 558.304688 122.070312 558.597656 122.070312 C 558.597656 122.070312 558.890625 122.070312 558.890625 122.070312 C 558.890625 122.070312 558.890625 122.070312 558.597656 122.070312 C 560.648438 122.070312 571.792969 123.242188 592.902344 153.425781 C 601.402344 199.726562 610.492188 121.484375 631.601562 144.632812 C 651.246094 135.257812 639.226562 155.476562 662.679688 160.164062 C 687.601562 137.308594 665.613281 180.09375 688.1875 178.042969 C 696.398438 200.605469 741.257812 193.867188 748 192.398438 C 750.933594 199.433594 776.144531 190.640625 810.15625 193.570312 C 810.15625 208.808594 852.960938 176.867188 873.78125 202.070312 C 876.125 246.90625 909.253906 203.828125 913.652344 221.703125 C 911.601562 217.894531 965.839844 216.722656 954.40625 234.597656 C 983.433594 265.367188 954.699219 252.765625 984.019531 223.167969 C 992.816406 228.152344 1009.234375 212.621094 1009.527344 205.585938 C 1041.777344 165.734375 1030.636719 237.234375 1041.191406 200.605469 C 1052.625 211.742188 1084.585938 168.078125 1071.097656 193.867188 C 1079.894531 192.984375 1071.390625 156.355469 1093.671875 168.664062 C 1105.402344 177.746094 1090.449219 127.636719 1116.542969 144.339844 C 1117.421875 107.417969 1145.570312 120.3125 1174.886719 136.722656 C 1198.34375 128.222656 1207.726562 158.699219 1234.699219 157.234375 C 1248.773438 165.441406 1284.835938 163.390625 1288.351562 190.347656 C 1338.488281 169.835938 1330.867188 196.796875 1349.042969 210.277344 C 1354.320312 189.46875 1402.40625 218.480469 1394.78125 204.121094 C 1409.148438 172.179688 1412.082031 190.054688 1435.828125 188.882812 C 1437.292969 188.882812 1438.761719 189.175781 1439.933594 189.175781 L 1439.933594 -271.484375 L 0.0664062 -271.484375 L 0.0664062 223.460938 C 11.792969 224.925781 23.230469 224.632812 26.746094 221.703125 Z M 26.746094 221.703125 " fill-opacity="1" fill-rule="nonzero"/></svg>